<svg width="97" height="33" viewBox="0 0 97 33" fill="none" xmlns="http://www.w3.org/2000/svg">
<path fill-rule="evenodd" clip-rule="evenodd" d="M19.4978 16.0795H15.2584L16.6772 14.6997H24.2385L23.1251 15.7907C22.9184 15.9764 22.7802 16.1878 22.7802 16.496V22.5235C19.2516 23.4855 16.1968 24 12.7564 24C5.66093 24 0.0146484 19.4245 0.0146484 11.8291C0.0146484 6.49306 4.2487 0 13.5118 0C17.7313 0 20.6835 1.2844 22.7222 2.63586L19.4989 5.79399V3.8906C17.7799 2.36376 15.8585 1.26764 12.5562 1.26764C7.33771 1.26764 3.59721 5.23419 3.59721 10.889C3.59721 16.6547 7.73255 22.5583 14.7687 22.5583C16.5048 22.5583 18.175 22.3299 19.4978 21.9135V16.0795ZM33.7392 8C28.4963 8 25.2479 11.6897 25.2479 15.6061C25.2479 18.9865 27.8649 23 33.1672 23C38.2677 23 41.3971 19.3031 41.3971 15.3181C41.3971 11.6062 38.3389 8.00137 33.7392 8.00137V8ZM32.8694 9.0757C36.5658 9.0757 38.2119 13.7138 38.2119 17.0219C38.2119 21.9417 34.3797 22.039 33.9216 22.039C32.1679 22.039 30.9423 21.0182 30.0248 19.6794C29.2172 18.4455 28.4278 16.1531 28.4278 13.9132C28.4278 11.6821 29.186 10.5927 30.3794 9.79117C31.3553 9.19038 32.269 9.0757 32.8681 9.0757H32.8694ZM68.0594 8C63.6346 8 61.241 10.8954 61.241 14.1281C61.241 16.5892 62.9468 19.3657 66.466 19.3657H67.3563C67.3563 19.3657 67.1138 19.9745 67.1126 20.5626C67.1126 21.4301 67.414 21.9173 68.0542 22.667C61.9987 23.0483 59.565 25.5727 59.565 28.2858C59.565 30.6617 61.7662 33 66.3921 33C71.8686 33 74.7049 29.8576 74.7049 26.7736C74.7049 24.5995 73.6569 23.4077 71.0031 21.3525C70.2227 20.7256 70.0714 20.3263 70.0714 19.8571C70.0714 19.1974 70.4461 18.7567 70.5948 18.5819L70.6029 18.5723C70.7687 18.3917 71.0143 18.1941 71.209 18.0376C71.3097 17.9566 71.3967 17.8866 71.4521 17.8355C72.3438 17.0548 73.6032 15.8994 73.6032 13.5933C73.6032 12.0111 72.9665 10.6501 71.5159 9.37557H73.2868L74.6174 8.00026H68.0594V8ZM66.8388 9.0289C67.6417 9.0289 68.3119 9.32231 69.0198 9.93112C69.805 10.6627 71.0597 12.6287 71.0597 15.0614C71.0597 17.6866 69.0862 18.4053 68.0182 18.4053C67.4954 18.4053 66.869 18.2541 66.3386 17.8792C65.1605 17.0896 63.9911 14.9877 63.9911 12.4866C63.9911 10.2297 65.2917 9.0289 66.8388 9.0289ZM69.1712 23.6921C69.1712 23.6921 68.9285 23.6635 68.591 23.6635C64.0473 23.7293 62.3915 25.5004 62.3915 27.5583C62.3915 30.0426 64.8078 31.5639 67.9693 31.5639C70.8494 31.5639 72.6278 30.0103 72.6278 28.0287C72.6278 26.5874 71.82 25.7782 70.5244 24.7196C69.9679 24.2802 69.1712 23.6921 69.1712 23.6921ZM81.8006 23H75.3744L76.552 21.8458C76.7451 21.6494 76.8351 21.4581 76.8351 21.177V1.40269H74.7049L76.1312 0H81.6114L80.4523 1.13985C80.3227 1.26229 80.1455 1.45487 80.1455 1.83092V20.9208C80.1455 21.3294 80.4404 21.751 80.9365 21.8108L82.7796 22.0372L81.8006 23ZM82.7796 15.2021C82.7796 10.5765 86.6377 8 90.2694 8H90.2708C94.1234 8 95.8 9.98699 96.3946 11.9602L86.1005 15.8329C87.0835 19.4302 89.893 21.3872 92.807 21.3872C94.3405 21.3872 95.4948 20.9509 96.9102 20.2866C96.1604 21.2202 95.1332 21.9631 94.0659 22.4205C93.071 22.8456 92.009 23 90.7194 23C85.5476 23 82.7796 19.0224 82.7796 15.2021ZM92.9543 11.7182C92.9543 10.5503 91.5457 9.05825 89.5971 9.05825C88.3089 9.05825 85.6976 9.95695 85.6976 13.3187C85.6976 14.1202 85.8689 14.8618 85.8689 14.8618L92.1964 12.4798C92.7 12.2953 92.9543 12.0959 92.9543 11.7182ZM51.9071 8C46.6643 8 43.4158 11.6897 43.4158 15.6061C43.4158 18.9865 46.0328 23 51.3351 23C56.4356 23 59.565 19.3031 59.565 15.3181C59.565 11.6062 56.5068 8.00137 51.9071 8.00137V8ZM51.0373 9.0757C54.7337 9.0757 56.3798 13.7138 56.3798 17.0219C56.3798 21.9417 52.5476 22.039 52.0895 22.039C50.3358 22.039 49.1102 21.0182 48.1927 19.6794C47.3851 18.4455 46.5957 16.1531 46.5957 13.9132C46.5957 11.6821 47.3539 10.5927 48.5473 9.79117C49.5232 9.19038 50.4369 9.0757 51.036 9.0757H51.0373Z" fill="#36536B"/>
</svg>
