<svg width="142" height="27" viewBox="0 0 142 27" fill="none" xmlns="http://www.w3.org/2000/svg">
<path fill-rule="evenodd" clip-rule="evenodd" d="M40.5197 0H23.7589L22.9975 2.02119C29.6434 2.33583 34.926 7.32367 34.926 13.4299C34.926 19.1057 30.3617 23.8147 24.3812 24.7038L23.6637 26.8728H40.5197C41.4641 26.8764 42.371 26.5007 43.0403 25.8285C43.7095 25.1564 44.0858 24.2431 44.0862 23.2905V3.57003C44.0862 1.58084 42.4888 0 40.5197 0ZM9.83269 13.4307C9.83269 18.4277 13.3826 22.838 18.3207 24.4409L17.4589 26.8728H4.25255C2.28726 26.8728 0.694336 25.2477 0.694336 23.2639V3.59746C0.693085 1.61351 2.28566 0.003705 4.25255 0.000761851H17.8864L17.0314 2.40059C12.9158 4.60463 9.83269 9.03784 9.83269 13.4307ZM133.475 16.3912H125.687V26.981H133.427C136.23 26.981 136.419 24.2497 136.419 22.7641V19.6497C136.419 17.7808 135.469 16.3912 133.475 16.3912ZM133.997 23.0521V20.0329C134.046 19.3632 133.571 18.596 132.858 18.596H128.108V24.7769H132.668C133.522 24.7769 133.997 23.9617 133.997 23.0521ZM122.343 22.8647C122.916 22.3832 123.297 21.6625 123.297 19.7388C123.297 17.5751 121.82 16.3729 120.105 16.3729H113.103V26.9992H115.485V23.8734H119.581C120.534 23.8734 121.01 24.6428 121.01 25.0756V26.9985H123.297V24.7868C123.297 24.1621 123.105 23.2494 122.343 22.8647ZM115.485 21.6625H119.866C120.772 21.6625 121.01 20.5563 121.01 20.0283C121.01 19.4981 120.772 18.5854 119.58 18.5854H115.485V21.6625ZM106.484 16.3935H103.351L99.1263 25.4938V26.9787H101.025L101.879 25.0626H107.947L108.811 26.9787H111.281L106.484 16.3935ZM104.918 18.3576L102.876 22.8601H106.95L104.918 18.3576ZM88.1125 26.9901V16.3828H90.5393V20.3666H91.5854L95.7229 16.3828H98.9571L93.8672 21.3745L98.0998 25.5982V26.9901H96.2924L91.7757 22.5736H90.5393V26.9901H88.1125ZM75.3684 24.4851V18.887C75.3684 17.6917 76.6486 16.3996 77.7869 16.3996H83.6215C85.1397 16.4468 86.0392 18.0269 86.0392 18.9358V19.8439H83.6215C83.5724 19.3655 83.1465 18.6486 82.7673 18.6486H78.5928C77.6449 18.6486 77.7876 19.6055 77.7876 19.6055V23.8155C77.7876 24.5811 78.2612 24.7723 78.5459 24.7723H82.6721C83.5732 24.7723 83.6691 24.0067 83.6691 23.5282H86.04V24.4851C86.04 26.0644 84.9501 26.9733 83.6223 26.9733H77.8352C76.0323 26.9733 75.3684 25.5852 75.3684 24.4851ZM69.4937 16.3729H66.3501L61.4437 27H64.0155L64.8735 25.0771H70.9597L71.8276 27H74.3049L69.4937 16.3729ZM67.9212 18.3438L65.8735 22.8647H69.9219L67.9212 18.3438ZM58.7239 16.3889H51.0742V26.984H53.4972V24.0113H58.7231C60.1484 24.0113 61.764 23.1968 61.764 20.2241C61.7647 17.2041 60.0064 16.3889 58.7239 16.3889ZM53.4972 21.8065H58.1536C59.199 21.8065 59.199 20.7041 59.199 20.2249C59.199 19.7457 59.199 18.5945 58.0109 18.5945H53.4972V21.8065ZM51.0742 0.173702V10.7688H53.4972V6.54963H59.8161V10.7688H62.239V0.173702H59.8161V4.34484H53.4972V0.173702H51.0742ZM66.3947 0.166845H74.4802V2.37698H67.1553V4.34484H73.2437V6.55268H67.1553V8.56854H74.4802V10.7764H66.2519C65.3003 10.7764 64.73 10.0084 64.73 9.38448V1.7515C64.73 0.790801 65.3003 0.166845 66.3947 0.166845ZM94.0031 0.177511V9.18411C94.0031 9.99853 94.6209 10.765 95.7131 10.765H102.837V8.56092H96.4261V0.177511H94.0031ZM121.593 2.37469V10.7764H119.168V2.37469H115.671V0.165322H125.139V2.37469H121.593ZM132.813 10.7832V2.37012H136.36V0.158465H126.883V2.37012H130.384V10.7832H132.813ZM105.814 0.171416H113.893H113.894V2.37698H106.574V4.34407H112.658V6.5504H106.574V8.56473H113.894V10.771H105.671C104.719 10.771 104.15 10.0039 104.15 9.37991V1.75454C104.15 0.794611 104.719 0.171416 105.814 0.171416ZM87.3837 10.787C86.6684 10.787 85.9781 9.70522 85.8346 9.17573L84.0483 3.61955L81.7129 10.7878H80.2363C79.521 10.7878 78.9009 9.6816 78.7582 9.15288L75.8518 0.156179H78.2816L80.5225 7.42043L82.9048 0.204176H85.191L87.5733 7.42043L89.8127 0.156179H92.244L88.8127 10.7878H87.3837V10.787ZM139.643 0.0937077C140.27 0.0836353 140.873 0.334067 141.311 0.78623C141.77 1.24791 142 1.80711 142 2.46306C142.01 3.09661 141.761 3.70627 141.311 4.14904C140.851 4.61453 140.295 4.84766 139.643 4.84766C138.989 4.84766 138.434 4.61529 137.977 4.14904C137.522 3.68507 137.295 3.12359 137.295 2.46306C137.285 1.8323 137.535 1.22567 137.983 0.78623C138.442 0.32531 138.994 0.0937077 139.643 0.0937077ZM141.076 3.91896C140.702 4.31179 140.183 4.52984 139.643 4.52082C139.103 4.5304 138.583 4.31226 138.209 3.91896C137.824 3.53485 137.612 3.0084 137.622 2.4623C137.622 1.89701 137.819 1.41476 138.212 1.01555C138.607 0.614814 139.084 0.413685 139.644 0.413685C140.203 0.413685 140.682 0.614814 141.077 1.01555C141.471 1.41476 141.667 1.89701 141.667 2.4623C141.667 3.03217 141.471 3.51747 141.076 3.91896ZM19.1914 0L12.8063 18.0009V18.0016H15.5029L18.6247 9.33768H19.4759C20.0426 9.33768 20.0426 9.75415 19.9485 10.2178L17.1579 18.0016H19.9485C19.9485 18.0016 22.3606 11.423 22.7866 10.0328C23.2118 8.64259 22.3606 7.9475 20.7049 7.9475H19.0966L21.9346 0H19.1914ZM25.3816 7.90179H29.7956C31.124 7.90179 32.5012 8.59984 31.7893 10.5075L29.7482 16.1839C29.3689 17.2542 29.0362 17.9987 27.0426 17.9987H24.5469L21.7269 26H19.0213L25.3816 7.90179ZM29.0362 9.99592C29.0362 9.99592 27.0426 15.5323 26.9952 15.8117C26.9478 16.0911 26.7099 16.6026 26.2358 16.6026H25.0384L27.6123 9.29788H28.7992C29.2259 9.29788 29.1785 9.62368 29.0362 9.99592Z" fill="#36536B"/>
</svg>
