<svg width="148" height="31" viewBox="0 0 148 31" fill="none" xmlns="http://www.w3.org/2000/svg">
<path fill-rule="evenodd" clip-rule="evenodd" d="M15.9212 15H0.78125V0H15.9212V15ZM147.134 14.0611V11.5398H143.961V7.62017L143.854 7.65262L140.874 8.55241L140.815 8.57002V11.54H136.112V9.88545C136.112 9.11505 136.286 8.5255 136.63 8.13233C136.972 7.74388 137.461 7.54639 138.084 7.54639C138.532 7.54639 138.996 7.65054 139.463 7.85593L139.58 7.90753V5.25227L139.525 5.2323C139.089 5.0778 138.497 5 137.763 5C136.837 5 135.996 5.19874 135.263 5.5926C134.529 5.98702 133.952 6.55008 133.548 7.26597C133.145 7.98103 132.94 8.8069 132.94 9.72083V11.5398H130.731V14.0611H132.94V24.6828H136.112V14.0611H140.815V20.811C140.815 23.591 142.144 24.9997 144.765 24.9997C145.195 24.9997 145.649 24.9499 146.111 24.8524C146.582 24.7523 146.903 24.6523 147.092 24.5455L147.134 24.5211V21.9765L147.005 22.0607C146.833 22.1739 146.618 22.2664 146.367 22.3352C146.115 22.4052 145.904 22.4403 145.741 22.4403C145.127 22.4403 144.673 22.2771 144.391 21.9549C144.106 21.6298 143.961 21.0614 143.961 20.2661V14.0611H147.134ZM123.649 22.4407C122.498 22.4407 121.59 22.064 120.951 21.3221C120.307 20.5764 119.981 19.5132 119.981 18.1624C119.981 16.7688 120.307 15.678 120.951 14.9191C121.591 14.1653 122.49 13.7826 123.623 13.7826C124.723 13.7826 125.598 14.1481 126.225 14.8694C126.855 15.5944 127.175 16.6764 127.175 18.0863C127.175 19.5135 126.874 20.6098 126.281 21.3432C125.692 22.071 124.807 22.4407 123.649 22.4407ZM118.606 13.1107C119.849 11.8582 121.594 11.2232 123.79 11.2232C125.859 11.2232 127.5 11.8306 128.666 13.029C129.832 14.2268 130.423 15.8944 130.423 17.9844C130.423 20.1003 129.793 21.8173 128.55 23.0857C127.307 24.3555 125.598 24.9994 123.469 24.9994C121.426 24.9994 119.775 24.3884 118.561 23.1821C117.348 21.9763 116.733 20.3211 116.733 18.2633C116.733 16.0967 117.363 14.3633 118.606 13.1107ZM111.619 11.2232C110.125 11.2232 108.89 11.6003 107.946 12.3438C106.996 13.0917 106.514 14.0726 106.514 15.2596C106.514 15.8766 106.618 16.4247 106.823 16.8896C107.029 17.356 107.347 17.7666 107.771 18.1113C108.191 18.4531 108.839 18.8112 109.698 19.1755C110.421 19.4688 110.959 19.7169 111.302 19.9125C111.636 20.1042 111.873 20.2968 112.007 20.4844C112.138 20.668 112.204 20.9193 112.204 21.2294C112.204 22.1124 111.534 22.5421 110.155 22.5421C109.644 22.5421 109.06 22.4367 108.421 22.2289C107.787 22.0243 107.188 21.7247 106.646 21.3405L106.514 21.2473V24.2605L106.562 24.2827C107.011 24.4871 107.577 24.6595 108.244 24.7952C108.909 24.9309 109.514 25 110.039 25C111.66 25 112.966 24.6211 113.918 23.8732C114.877 23.1201 115.363 22.1161 115.363 20.888C115.363 20.0021 115.101 19.2424 114.586 18.6297C114.074 18.0219 113.185 17.464 111.946 16.9708C110.958 16.5798 110.326 16.2551 110.065 16.0059C109.813 15.7651 109.686 15.4247 109.686 14.9935C109.686 14.6113 109.843 14.3051 110.167 14.0571C110.493 13.8079 110.947 13.6811 111.517 13.6811C112.045 13.6811 112.586 13.7635 113.123 13.9249C113.661 14.0863 114.133 14.3026 114.526 14.567L114.656 14.6544V11.7961L114.606 11.775C114.243 11.6212 113.764 11.4896 113.182 11.3828C112.602 11.2767 112.076 11.2232 111.619 11.2232ZM95.5484 21.3221C96.1879 22.064 97.0957 22.4407 98.2465 22.4407C99.4048 22.4407 100.29 22.071 100.879 21.3432C101.472 20.6098 101.773 19.5135 101.773 18.0863C101.773 16.6764 101.453 15.5944 100.823 14.8694C100.196 14.1481 99.3204 13.7826 98.2211 13.7826C97.0873 13.7826 96.1886 14.1653 95.5491 14.9191C94.9052 15.678 94.5793 16.7688 94.5793 18.1624C94.5793 19.5135 94.9048 20.5764 95.5484 21.3221ZM98.3879 11.2232C96.1912 11.2232 94.4468 11.8582 93.2037 13.1107C91.9609 14.3633 91.3303 16.0967 91.3303 18.2633C91.3303 20.3219 91.9458 21.9763 93.1592 23.1821C94.3726 24.3884 96.0237 24.9994 98.0667 24.9994C100.195 24.9994 101.905 24.3555 103.148 23.0857C104.391 21.8173 105.021 20.1003 105.021 17.9844C105.021 15.8944 104.43 14.2268 103.264 13.029C102.097 11.8306 100.456 11.2232 98.3879 11.2232ZM86.5161 11.5398V13.8159H86.5495C86.8422 13.0773 87.225 12.485 87.7547 12.0529C88.3581 11.5615 89.0626 11.3118 89.8499 11.3118C90.3721 11.3118 90.7849 11.3735 91.0766 11.4959L91.1273 11.5173V14.6341L90.9957 14.54C90.8506 14.4368 90.6047 14.3388 90.2652 14.2485C89.9221 14.1576 89.6054 14.1117 89.3232 14.1117C88.4906 14.1117 87.8088 14.4669 87.2971 15.1678C86.7788 15.8772 86.5161 16.8164 86.5161 17.9595V24.6826H83.3834V11.5398H86.5161ZM77.7731 11.2232C76.3359 11.2232 75.0539 11.5273 73.9635 12.1269C72.8708 12.7278 72.0258 13.5857 71.4509 14.6766C70.8785 15.7648 70.5879 17.036 70.5879 18.4537C70.5879 19.6954 70.8696 20.835 71.4266 21.8394C71.9838 22.8454 72.7725 23.6324 73.7708 24.1783C74.7678 24.7235 75.92 24.9999 77.1958 24.9999C78.6846 24.9999 79.9557 24.7061 80.9749 24.1268L81.0161 24.1035V21.2712L80.8844 21.366C80.4227 21.6979 79.9068 21.9628 79.3517 22.1536C78.798 22.3443 78.2932 22.4407 77.8505 22.4407C76.6213 22.4407 75.6344 22.0611 74.9181 21.3128C74.2003 20.5635 73.8363 19.5113 73.8363 18.1873C73.8363 16.8549 74.2159 15.7757 74.964 14.9793C75.7098 14.1854 76.6984 13.7826 77.9022 13.7826C78.9319 13.7826 79.9353 14.1267 80.8847 14.8063L81.0161 14.9004V11.9161L80.9736 11.8925C80.6164 11.6951 80.1292 11.5322 79.5243 11.4086C78.922 11.2853 78.3328 11.2232 77.7731 11.2232ZM65.2975 11.54H68.4302V24.6826H65.2975V11.54ZM66.8959 5.94111C66.3803 5.94111 65.9306 6.11433 65.5611 6.45758C65.1901 6.80179 65.0019 7.23518 65.0019 7.74665C65.0019 8.25008 65.1878 8.67556 65.5553 9.01062C65.9204 9.34472 66.3716 9.51405 66.896 9.51405C67.4204 9.51405 67.8732 9.34472 68.2426 9.01118C68.6145 8.67556 68.8031 8.25022 68.8031 7.74665C68.8031 7.25307 68.6195 6.82412 68.2579 6.47145C67.8966 6.11946 67.4382 5.94111 66.8959 5.94111ZM59.0794 24.6826V10.5703H58.9762L53.3024 24.6826H51.0351L45.2713 10.5689H45.1682V24.6824H42.1637V6.34344H46.7689L52.2271 19.9652L57.8515 6.34344H62.2765V24.6826H59.0794ZM16.9305 15H32.0704V0H16.9305V15ZM15.9212 31H0.78125V16H15.9212V31ZM16.9305 31H32.0704V16H16.9305V31Z" fill="#36536B"/>
</svg>
