<svg width="139" height="26" viewBox="0 0 139 26" fill="none" xmlns="http://www.w3.org/2000/svg">
<path fill-rule="evenodd" clip-rule="evenodd" d="M15.398 0V3.50139L16.0934 3.45799C25.0325 3.15415 30.8711 10.7791 30.8711 10.7791C30.8711 10.7791 24.1777 18.9104 17.209 18.9104C16.6005 18.9104 16.0065 18.8525 15.4125 18.7513V20.9215C15.9051 20.9794 16.4121 21.0228 16.9047 21.0228C23.3953 21.0228 28.0894 17.7095 32.6387 13.803C32.9786 14.0772 33.7935 14.5252 34.6441 14.9929C35.6785 15.5616 36.7656 16.1593 37.1155 16.5086C32.798 20.1258 22.7289 23.0339 17.0206 23.0339C16.4701 23.0339 15.9485 23.005 15.427 22.9471V26H40.0855V0H15.398ZM15.398 7.75515V5.41237L15.4125 5.41124V5.41034C15.6395 5.39618 15.8664 5.3823 16.0934 5.3823C22.5261 5.17974 26.7421 10.9093 26.7421 10.9093C26.7421 10.9093 22.1928 17.2176 17.3104 17.2176C16.6584 17.2176 16.021 17.1163 15.4125 16.9137V9.79521C17.7723 10.0813 18.3598 11.0727 19.6659 13.2768L19.6661 13.2771C19.7472 13.4139 19.831 13.5554 19.9182 13.7017L23.265 10.8948C23.265 10.8948 20.8165 7.69727 16.7019 7.69727C16.2673 7.6828 15.8326 7.71174 15.398 7.75515ZM15.398 7.75515V9.78075H15.3835C12.8771 9.47691 10.9067 11.8208 10.9067 11.8208C10.9067 11.8208 12.0223 15.7707 15.398 16.9137V18.7657C9.39997 17.695 7.73386 11.4591 7.73386 11.4591C7.73386 11.4591 10.617 8.27602 15.398 7.75515ZM15.4125 5.41034L15.398 5.41124L15.398 5.41124V5.41237C8.29407 5.96816 4.74933 11.1987 4.74933 11.1987C4.74933 11.1987 7.45858 19.9377 15.398 20.9215V22.9471C4.57548 21.9343 0.72168 10.7935 0.72168 10.7935C0.72168 10.7935 7.53102 4.13801 15.4125 3.50139V5.41034ZM47.1508 5V21.9856H52.0478V8.79695L55.8664 8.81134C57.1198 8.81134 57.9943 9.11337 58.5918 9.74619C59.3643 10.5516 59.6703 11.8604 59.6703 14.2335V21.9856H64.4216V12.6083C64.4216 5.90609 60.093 5 55.8664 5H47.1508ZM85.3361 5.02876V22H90.1895V5.02876H85.3361ZM93.1627 22V5.02876H99.969C103.846 5.02876 106.44 5.489 108.218 7.8621C109.224 9.18528 109.792 11.3139 109.792 13.7014C109.792 16.3046 109.122 18.692 108.072 19.7707C106.6 21.3096 105.23 22 101.033 22H93.1627ZM97.9723 8.71066H100.056C103.088 8.71066 105.041 10.0482 105.041 13.5288C105.041 17.0093 103.088 18.3613 100.056 18.3613H97.9723V8.71066ZM74.2886 18.4763L78.3403 5.02876H83.2957L77.6991 22H70.7033L65.1649 5.02876H70.4118L74.2886 18.4763ZM112.066 22H116.919V5.02876H112.066V22ZM118.901 21.9856L125.679 5.02876H132.164L139 21.9712H133.797L132.776 18.9797H124.76L123.682 21.9856H118.901ZM128.827 8.12098L131.771 16.0601H125.795L128.827 8.12098Z" fill="#36536B"/>
</svg>
