<svg width="133" height="17" viewBox="0 0 133 17" fill="none" xmlns="http://www.w3.org/2000/svg">
<path fill-rule="evenodd" clip-rule="evenodd" d="M57.0814 11.06H65.8182L61.1984 3.70904L52.7194 16.9997H48.8607L59.1737 1.03466C59.6221 0.389754 60.3694 0 61.1984 0C62 0 62.7474 0.376217 63.1822 1.00784L73.5361 16.9997H69.6774L67.8568 14.0299H59.011L57.0814 11.06ZM97.1654 14.0296V0.161163H93.8908V15.3871C93.8908 15.8037 94.0538 16.207 94.3662 16.516C94.6787 16.825 95.0999 16.9997 95.5619 16.9997H110.495L112.425 14.0299H97.1651L97.1654 14.0296ZM48.752 5.85907C48.752 9.00367 46.1703 11.5434 42.9905 11.5434L42.9907 11.544H41.496L48.0725 17H43.3167L33.5418 8.57407L42.7733 8.58735C44.2952 8.58735 45.5179 7.36445 45.5179 5.85959C45.5179 4.35446 44.2952 3.13131 42.7733 3.13131H31.9383V17H28.6648V0.160907H42.9905C46.1703 0.160907 48.752 2.71423 48.752 5.85907ZM8.51437 16.9997C3.8143 17 0 13.2371 0 8.58735C0 3.93738 3.8143 0.161418 8.51437 0.161418H18.4104C23.1115 0.161418 26.9229 3.93738 26.9229 8.58735C26.9229 13.2371 23.1115 16.9997 18.4101 16.9997H8.51437ZM23.7016 8.58709C23.7016 11.5973 21.2353 14.0299 18.1903 14.0299H18.1901H8.73311C5.68942 14.0299 3.22188 11.5973 3.22188 8.58735C3.22188 5.5771 5.68942 3.13131 8.73337 3.13131H18.1903C21.2353 3.13131 23.7016 5.5771 23.7016 8.58709ZM80.3708 16.9997C75.6697 16.9997 71.8513 13.2371 71.8513 8.58735C71.8513 3.93738 75.6697 0.161418 80.3708 0.161418H92.1247L90.2085 3.13131H80.5883C77.5446 3.13131 75.0716 5.5771 75.0716 8.58735C75.0716 11.5973 77.5446 14.0299 80.5883 14.0299H92.3961L90.4665 16.9997H80.3708ZM115.115 10.0654C115.767 12.3636 117.901 14.0299 120.414 14.0299H132.222L130.293 16.9995H120.197C115.495 16.9995 111.677 13.2368 111.677 8.58684C111.677 3.93712 115.495 0.160907 120.197 0.160907H131.964L130.021 3.13131H120.414C117.901 3.13131 115.767 4.81088 115.115 7.09551H131.04L129.111 10.0654H115.115Z" fill="#36536B"/>
</svg>
