<svg width="131" height="17" viewBox="0 0 131 17" fill="none" xmlns="http://www.w3.org/2000/svg">
<path fill-rule="evenodd" clip-rule="evenodd" d="M3.38578 3.42818C1.6697 3.05249 0.371044 1.54972 0 0.0469613L21.1959 0V0.0469613C20.8249 1.54972 19.5726 2.95856 17.8101 3.42818H12.5227L12.2445 3.5221V17H8.95144V3.5221L8.67316 3.42818H3.38578ZM32.7332 3.41873H45.3674C47.1455 3.09091 48.4557 1.49862 48.7833 0H29.2705C29.6449 1.49862 30.9551 3.04408 32.7332 3.41873ZM126.787 3.41873H114.153C112.422 3.04408 111.112 1.49862 110.737 0H130.203C129.829 1.49862 128.566 3.09091 126.787 3.41873ZM111.252 17V6.7438H129.782V17H126.507V10.1625H114.528V17H111.252ZM101.285 17C102.923 16.2975 103.812 15.0799 104.186 13.6749H89.4465V0.046832H86.1242V17H101.285ZM73.2561 3.3719H61.5578L61.6046 6.7438H76.7656V17H57.3464C58.1419 15.3609 59.7329 14.0964 61.6046 13.5813H73.4901V10.0689H58.3291V0.046832H76.8592C76.4848 1.49862 75.0342 2.85675 73.2561 3.3719ZM45.3674 10.1157H32.7332C30.9551 9.74105 29.6449 8.19559 29.2705 6.69697H48.7833C48.4557 8.19559 47.1455 9.78788 45.3674 10.1157ZM32.7332 17H45.3674C47.1455 16.6722 48.4557 15.0799 48.7833 13.5813H29.2705C29.6449 15.0799 30.9551 16.6722 32.7332 17Z" fill="#36536B"/>
</svg>
